<?xml version="1.0" encoding="utf-8"?>
<!-- Generator: Adobe Illustrator 23.0.0, SVG Export Plug-In . SVG Version: 6.00 Build 0)  -->
<svg version="1.1" id="Capa_1" xmlns="http://www.w3.org/2000/svg" xmlns:xlink="http://www.w3.org/1999/xlink" x="0px" y="0px"
	 viewBox="0 0 512 512" style="enable-background:new 0 0 512 512;" xml:space="preserve">
<g id="Group_628" transform="translate(5 -17.5)">
	<g id="Group_595">
		<g id="Group_594">
			<g id="Group_593">
				<g id="Group_592">
					<path id="Path_905" d="M92.6,309.5c-6.6,0-11.9-5.3-11.9-11.9v-18.8c0-11.8,9.6-21.3,21.3-21.3h153.3c6.6,0,11.9,5.3,11.9,11.9
						s-5.3,11.9-11.9,11.9H104.4v16.4C104.4,304.2,99.1,309.5,92.6,309.5z"/>
				</g>
			</g>
		</g>
	</g>
	<g id="Group_627">
		<g id="Group_626">
			<g id="Group_625">
				<g id="Group_624">
					<path id="Path_913" d="M491.1,505.2c-1.9,0-3.7-0.4-5.4-1.3l-54.4-27.8c-5.8-3-8.2-10.1-5.2-16c3-5.8,10.1-8.2,16-5.2l37.1,19
						v-96.5l-95.5-36.8c-15-5.7-28-15.7-37.5-28.6c-4.5-6-12-9.6-20.2-9.6l-47-0.4c-7.6,0-15.2,1.6-22.2,4.7l-11.3,5
						c-11.3,5.1-26.8,11.3-35.8,12l-33.9,3.9c-0.4,0.1-0.9,0.1-1.4,0.1c-0.5,0-0.9,0-1.4-0.1c-3.9-0.5-7.9-0.7-11.9-0.8
						c-16.4,0-20.8,5.1-21.7,6.6c-0.3,0.5-0.5,1-0.7,1.6c3.6,0.9,10.3,1.3,13.5,1.4c2.2,0.1,4.2,0.2,6.1,0.4l68.4,6
						c10.3,0.9,17.6,8.3,17.3,17.6c-0.3,8.9-8.1,19.4-29.1,19.9l-71.5,2.5c-0.1,0-0.3,0-0.4,0c-0.3,0-0.7,0-1,0l-72.8-6.1
						c-0.4,0-0.8-0.1-1.2-0.2c-7.5-1.5-15-2.4-22.7-2.6c-9.3,0-12.4,2-13.1,2.6c-0.4,0.3-1,0.8-1,3.5v2.9c2.8,1.3,10,3.7,27,5.7
						c1,0.1,1.7,0.2,2,0.3l77.5,10.7l208.5,7.7c1.9,0,3.7,0.5,5.3,1.3l63.3,32.3c5.8,3,8.2,10.1,5.2,16c-2,4-6.1,6.5-10.6,6.5
						c-1.9,0-3.7-0.4-5.4-1.3l-61-31.1l-206.9-7.7c-0.4,0-0.8,0-1.2-0.1l-78.4-10.8c-0.1,0-0.4-0.1-0.9-0.1l-0.4,0
						c-23.7-2.8-45.9-7.6-47.9-23.9c-0.1-0.5-0.1-1-0.1-1.4v-6.9c0-9,3.3-16.5,9.6-21.7c6.5-5.4,15.8-8,28.2-8
						c8.9,0.1,17.8,1.1,26.5,2.9l8.7,0.7v-26c0-6.6,5.3-11.9,11.9-11.9c6.6,0,11.9,5.3,11.9,11.9v28l30.3,2.5
						c-4.4-0.8-8.6-2.6-12.2-5.3c-7.4-5.7-9.6-17.4-5.4-27.8c3.4-8.3,13.6-22.2,44.2-22.2c4.4,0,8.8,0.3,13.2,0.8l32.8-3.8
						c0.2,0,0.3,0,0.5,0c3.4-0.2,14.1-3.8,28.2-10l11.3-5c9.9-4.4,20.6-6.7,31.4-6.8c-5-4.3-5.6-11.7-1.3-16.7
						c2.3-2.6,5.5-4.2,9-4.2h10.6l47.2-193c1.7-7,8-11.9,15.2-11.9c1.3,0,2.5,0.2,3.8,0.5l24.7,6.1c35.7,8.8,57.4,44.9,48.7,80.5
						L410.3,247c-5.7,23.4-23.6,41.9-46.9,48.4c0.7,0.8,1.3,1.6,1.9,2.4c6.8,9.3,16.1,16.5,26.9,20.6l103.2,39.7
						c4.6,1.8,7.6,6.2,7.6,11.1v124C503,499.9,497.7,505.2,491.1,505.2z M335.5,272.9c3.4,0.8,6.8,1.2,10.2,1.2
						c19.7-0.1,36.8-13.6,41.4-32.7L413.5,134c5.6-23-8.4-46.2-31.3-51.9l-16.9-4.2l-46.6,190.8L335.5,272.9z"/>
				</g>
			</g>
		</g>
	</g>
</g>
<g id="Group_629" transform="translate(-684.286 -8.502)">
	<path id="Path_914" d="M842.1,240.7c0-17,13.8-30.9,30.8-30.9c17,0,30.9,13.8,30.9,30.8c0,7.9-3,15.4-8.4,21.2h17.3
		c11.7-21.9,3.3-49.2-18.6-60.9c-1-0.5-2-1-3-1.4c10.7-9.7,12.6-19.1,12.6-24.5c0-12-8.3-21.4-19-21.4c-4.2,0-8.4,1.3-11.9,3.7
		c-3.5-2.4-7.6-3.7-11.9-3.7c-10.6,0-19,9.4-19,21.4c0,5.5,1.9,14.8,12.6,24.5c-22.7,10-33,36.6-23,59.4c0.4,1,0.9,2,1.4,2.9h17.3
		C845.1,256.1,842.1,248.5,842.1,240.7z"/>
</g>
<g id="Group_637" transform="translate(-578.936 -155)">
	<g id="Group_599">
		<g id="Group_630">
			<g id="Group_598">
				<g id="Group_597">
					<g id="Group_596">
						<g id="Path_906">
							<path id="Path_915" d="M767,276.3c-5,0-9-4-9-9v-13.2c0-5,4-9,9-9s9,4,9,9l0,0v13.2C776,272.2,771.9,276.2,767,276.3z"/>
						</g>
					</g>
				</g>
			</g>
		</g>
	</g>
	<g id="Group_603">
		<g id="Group_631">
			<g id="Group_602">
				<g id="Group_601">
					<g id="Group_600">
						<g id="Path_907">
							<path id="Path_916" d="M736.9,281.4c-3.8,0-7.2-2.4-8.5-5.9l-4.5-12.4c-1.8-4.7,0.6-9.9,5.2-11.6c4.7-1.8,9.9,0.6,11.6,5.2
								l4.6,12.6c1.7,4.7-0.7,9.9-5.4,11.6C739,281.3,738,281.4,736.9,281.4L736.9,281.4z"/>
						</g>
					</g>
				</g>
			</g>
		</g>
	</g>
	<g id="Group_607">
		<g id="Group_632">
			<g id="Group_606">
				<g id="Group_605">
					<g id="Group_604">
						<g id="Path_908">
							<path id="Path_917" d="M710.3,296.6c-2.6-0.1-5-1.2-6.7-3.2l-8.5-10.1c-3.2-3.8-2.7-9.5,1.1-12.7c3.8-3.2,9.5-2.7,12.7,1.1
								l8.5,10.1c3.2,3.8,2.7,9.5-1.1,12.7c-1.6,1.4-3.7,2.1-5.8,2.1L710.3,296.6z"/>
						</g>
					</g>
				</g>
			</g>
		</g>
	</g>
	<g id="Group_611">
		<g id="Group_633">
			<g id="Group_610">
				<g id="Group_609">
					<g id="Group_608">
						<g id="Path_909">
							<path id="Path_918" d="M690.8,319.8c-1.6,0-3.1-0.4-4.5-1.2l-11.4-6.6c-4.3-2.5-5.9-8-3.4-12.3c2.5-4.3,8-5.9,12.3-3.4
								l11.5,6.7c4.3,2.5,5.8,8,3.3,12.3C697,318.1,694.1,319.8,690.8,319.8L690.8,319.8z"/>
						</g>
					</g>
				</g>
			</g>
		</g>
	</g>
	<g id="Group_615">
		<g id="Group_634">
			<g id="Group_614">
				<g id="Group_613">
					<g id="Group_612">
						<g id="Path_910">
							<path id="Path_919" d="M843.5,319.2c-5,0-9-4-9-9c0-3.2,1.7-6.2,4.5-7.8l11.4-6.6c4.3-2.5,9.8-1,12.3,3.3
								c2.5,4.3,1,9.8-3.3,12.3L848,318C846.7,318.8,845.1,319.2,843.5,319.2L843.5,319.2z"/>
						</g>
					</g>
				</g>
			</g>
		</g>
	</g>
	<g id="Group_619">
		<g id="Group_635">
			<g id="Group_618">
				<g id="Group_617">
					<g id="Group_616">
						<g id="Path_911">
							<path id="Path_920" d="M823.6,295.6c-5,0-9-4-9-9c0-2.1,0.7-4.2,2.1-5.8l8.5-10.1c3.1-3.9,8.8-4.5,12.7-1.4
								c3.9,3.1,4.5,8.8,1.4,12.7c0,0.1-0.1,0.1-0.1,0.2l-8.6,10.2C828.8,294.4,826.3,295.6,823.6,295.6L823.6,295.6z"/>
						</g>
					</g>
				</g>
			</g>
		</g>
	</g>
	<g id="Group_623">
		<g id="Group_636">
			<g id="Group_622">
				<g id="Group_621">
					<g id="Group_620">
						<g id="Path_912">
							<path id="Path_921" d="M796.8,280.2c-5,0-9-4-9-9c0-1.1,0.2-2.1,0.5-3.1l4.5-12.4c1.6-4.7,6.8-7.2,11.5-5.5
								c4.7,1.6,7.2,6.8,5.5,11.5c0,0,0,0.1-0.1,0.1l-4.5,12.5C803.9,277.8,800.5,280.2,796.8,280.2z"/>
						</g>
					</g>
				</g>
			</g>
		</g>
	</g>
</g>
</svg>
